<?xml version="1.0" encoding="UTF-8" standalone="no"?>
<svg
   xmlns:dc="http://purl.org/dc/elements/1.1/"
   xmlns:cc="http://creativecommons.org/ns#"
   xmlns:rdf="http://www.w3.org/1999/02/22-rdf-syntax-ns#"
   xmlns:svg="http://www.w3.org/2000/svg"
   xmlns="http://www.w3.org/2000/svg"
   height="212.59842"
   width="903.54327"
   version="1.1"
   id="space-invaders">
  <path
     id="invader-1"
     d="m 70.875,35.4375 0,17.71875 17.71875,0 0,-17.71875 -17.71875,0 z m 17.71875,17.71875 0,17.71875 -17.71875,0 0,17.71875 -17.71875,0 0,-17.71875 0,-17.71875 -17.71875,0 0,17.71875 0,17.71875 0,17.71875 0,17.71875 17.71875,0 0,17.6875 17.71875,0 0,17.71875 17.71875,0 0,-17.71875 17.71875,0 17.71875,0 17.6875,0 17.71875,0 17.71875,0 0,17.71875 17.71875,0 0,-17.71875 17.71875,0 0,-17.6875 17.71875,0 0,-17.71875 0,-17.71875 0,-17.71875 0,-17.71875 -17.71875,0 0,17.71875 0,17.71875 -17.71875,0 0,-17.71875 -17.71875,0 0,-17.71875 -17.71875,0 0,17.71875 -17.71875,0 -17.6875,0 -17.71875,0 0,-17.71875 -17.71875,0 z m 88.5625,0 17.71875,0 0,-17.71875 -17.71875,0 0,17.71875 z m 17.71875,106.28125 0,17.71875 17.71875,0 0,-17.71875 -17.71875,0 z m -124,0 -17.71875,0 0,17.71875 17.71875,0 0,-17.71875 z m 17.71875,-70.84375 17.71875,0 0,17.71875 -17.71875,0 0,-17.71875 z m 70.84375,0 17.71875,0 0,17.71875 -17.71875,0 0,-17.71875 z"
     style="color:#000000;display:inline;overflow:visible;visibility:visible;opacity:1;fill:#000000;fill-opacity:1;fill-rule:nonzero;stroke:none;stroke-width:2;marker:none;enable-background:accumulate" />
  <path
     id="invader-2"
     d="m 318.90625,35.4375 0,17.71875 17.71875,0 0,-17.71875 -17.71875,0 z m 17.71875,17.71875 0,17.71875 -17.71875,0 0,17.71875 -17.71875,0 0,17.71875 -17.71875,0 0,17.71875 0,17.6875 0,17.71875 17.71875,0 0,-17.71875 0,-17.6875 17.71875,0 0,17.6875 0,17.71875 17.71875,0 0,-17.71875 17.71875,0 17.71875,0 17.6875,0 17.71875,0 17.71875,0 0,17.71875 17.71875,0 0,-17.71875 0,-17.6875 17.71875,0 0,17.6875 0,17.71875 17.71875,0 0,-17.71875 0,-17.6875 0,-17.71875 -17.71875,0 0,-17.71875 -17.71875,0 0,-17.71875 -17.71875,0 0,-17.71875 -17.71875,0 0,17.71875 -17.71875,0 -17.6875,0 -17.71875,0 0,-17.71875 -17.71875,0 z m 88.5625,0 17.71875,0 0,-17.71875 -17.71875,0 0,17.71875 z m 0,106.28125 -17.71875,0 -17.71875,0 0,17.71875 17.71875,0 17.71875,0 0,-17.71875 z m -88.5625,0 0,17.71875 17.71875,0 17.71875,0 0,-17.71875 -17.71875,0 -17.71875,0 z m 0,-70.84375 17.71875,0 0,17.71875 -17.71875,0 0,-17.71875 z m 70.84375,0 17.71875,0 0,17.71875 -17.71875,0 0,-17.71875 z"
     style="color:#000000;display:inline;overflow:visible;visibility:visible;opacity:1;fill:#000000;fill-opacity:1;fill-rule:nonzero;stroke:none;stroke-width:2;marker:none;enable-background:accumulate" />
  <path
     id="invader-3"
     d="m 584.65625,35.4375 0,17.71875 -17.71875,0 0,17.71875 -17.71875,0 0,17.71875 -17.71875,0 0,17.71875 0,17.71875 17.71875,0 17.71875,0 0,17.6875 17.71875,0 0,-17.6875 17.71875,0 17.71875,0 0,17.6875 17.6875,0 0,-17.6875 17.71875,0 17.71875,0 0,-17.71875 0,-17.71875 -17.71875,0 0,-17.71875 -17.71875,0 0,-17.71875 -17.6875,0 0,-17.71875 -17.71875,0 -17.71875,0 z m 53.125,106.28125 0,17.71875 17.71875,0 0,-17.71875 -17.71875,0 z M 655.5,159.4375 l 0,17.71875 17.71875,0 0,-17.71875 -17.71875,0 z m -17.71875,0 -17.6875,0 0,17.71875 17.6875,0 0,-17.71875 z m -17.6875,0 0,-17.71875 -17.71875,0 -17.71875,0 0,17.71875 17.71875,0 17.71875,0 z m -35.4375,0 -17.71875,0 0,17.71875 17.71875,0 0,-17.71875 z m -17.71875,0 0,-17.71875 -17.71875,0 0,17.71875 17.71875,0 z m -17.71875,0 -17.71875,0 0,17.71875 17.71875,0 0,-17.71875 z m 17.71875,-70.84375 17.71875,0 0,17.71875 -17.71875,0 0,-17.71875 z m 53.15625,0 17.6875,0 0,17.71875 -17.6875,0 0,-17.71875 z"
     style="color:#000000;display:inline;overflow:visible;visibility:visible;opacity:1;fill:#000000;fill-opacity:1;fill-rule:nonzero;stroke:none;stroke-width:2;marker:none;enable-background:accumulate" />
  <path
     id="invader-4"
     d="m 779.53125,35.4375 0,17.71875 -17.71875,0 0,17.71875 -17.71875,0 0,17.71875 -17.71875,0 0,17.71875 0,17.71875 17.71875,0 0,17.6875 17.71875,0 0,-17.6875 17.71875,0 0,17.6875 17.71875,0 17.71875,0 0,-17.6875 17.71875,0 0,17.6875 17.71875,0 0,-17.6875 17.71875,0 0,-17.71875 0,-17.71875 -17.71875,0 0,-17.71875 -17.71875,0 0,-17.71875 -17.71875,0 0,-17.71875 -17.71875,0 -17.71875,0 z m 70.875,106.28125 0,17.71875 17.71875,0 0,-17.71875 -17.71875,0 z m 0,17.71875 -17.71875,0 0,17.71875 17.71875,0 0,-17.71875 z m -106.3125,-17.71875 -17.71875,0 0,17.71875 17.71875,0 0,-17.71875 z m 0,17.71875 0,17.71875 17.71875,0 0,-17.71875 -17.71875,0 z m 17.71875,-70.84375 17.71875,0 0,17.71875 -17.71875,0 0,-17.71875 z m 53.15625,0 17.71875,0 0,17.71875 -17.71875,0 0,-17.71875 z"
     style="color:#000000;display:inline;overflow:visible;visibility:visible;opacity:1;fill:#000000;fill-opacity:1;fill-rule:nonzero;stroke:none;stroke-width:2;marker:none;enable-background:accumulate" />
</svg>
